<?xml version="1.0" standalone="no"?>
<!DOCTYPE svg PUBLIC "-//W3C//DTD SVG 20010904//EN"
 "http://www.w3.org/TR/2001/REC-SVG-20010904/DTD/svg10.dtd">
<svg version="1.0" xmlns="http://www.w3.org/2000/svg"
 width="640.000000pt" height="640.000000pt" viewBox="0 0 640.000000 640.000000"
 preserveAspectRatio="xMidYMid meet">
<metadata>
Created by potrace 1.11, written by Peter Selinger 2001-2013
</metadata>
<g transform="translate(0.000000,640.000000) scale(0.100000,-0.100000)"
fill="#000000" stroke="none">
<path d="M220 6330 c-40 -11 -83 -37 -104 -61 -50 -60 -47 133 -47 -3075 l0
-2984 23 -42 c13 -23 43 -56 66 -73 l44 -30 3003 0 3003 0 44 30 c23 17 54 51
68 75 l24 45 0 2986 0 2987 -30 48 c-19 31 -46 58 -74 74 l-45 25 -2975 1
c-1636 0 -2986 -2 -3000 -6z"/>
</g>
</svg>
